<svg version="1.1" id="Layer_1" xmlns="http://www.w3.org/2000/svg" xmlns:xlink="http://www.w3.org/1999/xlink" x="0px" y="0px"
	 width="100%" viewBox="0 0 400 400" enable-background="new 0 0 400 400" xml:space="preserve">
<path fill="#FFFFFE" opacity="1.000000" stroke="none" 
	d="
M219.000000,401.000000 
	C146.022659,401.000000 73.545303,401.000000 1.033979,401.000000 
	C1.033979,267.730988 1.033979,134.461960 1.033979,1.096468 
	C134.227310,1.096468 267.454712,1.096468 400.841064,1.096468 
	C400.841064,134.333176 400.841064,267.666565 400.841064,401.000000 
	C340.462036,401.000000 279.981018,401.000000 219.000000,401.000000 
M137.891052,35.358501 
	C116.519699,48.103329 103.495964,66.742828 98.662476,91.104889 
	C97.151253,98.721794 100.099739,102.254974 107.923866,103.043533 
	C121.006805,104.362122 134.085693,105.741257 147.141098,107.305206 
	C155.209717,108.271774 158.135376,106.796425 160.099457,98.796783 
	C165.408768,77.172028 183.344009,69.457695 200.878036,70.327744 
	C211.845367,70.871956 221.537491,74.714539 226.939743,85.131310 
	C233.298218,97.391968 230.927567,110.647659 231.483215,123.728218 
	C229.627823,123.896744 228.645569,123.976524 227.665344,124.076370 
	C202.838745,126.605003 177.979248,128.692856 153.795303,135.601242 
	C112.860916,147.294586 88.776886,179.956329 90.247307,222.483261 
	C91.780762,266.833160 119.176483,293.197266 163.538773,293.211487 
	C182.376404,293.217529 200.475037,290.269318 216.228958,279.283630 
	C224.902924,273.234985 232.817413,266.097260 241.328552,259.245850 
	C241.994324,260.179474 242.851334,261.580444 243.899872,262.819305 
	C250.756332,270.920349 257.283325,279.345459 264.650970,286.954987 
	C271.039764,293.553558 275.685608,293.047882 282.758331,286.837555 
	C291.641937,279.037109 300.509155,271.215027 309.520325,263.563477 
	C322.144928,252.843674 322.440735,251.867722 312.291168,238.750946 
	C302.964233,226.697311 298.302216,213.332626 298.669189,198.001221 
	C299.027985,183.011261 298.834808,168.005356 298.725922,153.007614 
	C298.575989,132.351776 298.720367,111.680122 297.933838,91.045921 
	C296.882965,63.475945 284.314209,42.843807 259.057709,30.667986 
	C247.262054,24.981459 234.737411,21.700180 221.746811,20.385839 
	C192.657669,17.442709 164.637924,20.838261 137.891052,35.358501 
M290.371521,363.937866 
	C298.239197,359.605896 306.456726,355.794983 313.884552,350.807892 
	C322.841492,344.794159 331.231110,337.910065 339.651367,331.135559 
	C342.760773,328.633850 343.859009,324.987976 341.318115,321.369049 
	C338.951477,317.998291 335.879913,319.043976 332.912384,320.714783 
	C331.898499,321.285583 330.821564,321.743134 329.786621,322.277954 
	C295.306183,340.094604 258.642578,350.407501 219.970795,352.749146 
	C181.929306,355.052673 145.018234,348.783417 109.263275,335.603638 
	C83.958473,326.275970 60.496590,313.534393 38.467827,298.026367 
	C36.948330,296.956635 34.438419,297.293793 32.389103,296.976685 
	C32.694386,299.113983 32.804424,301.306671 33.388111,303.365021 
	C33.675762,304.379425 34.765102,305.225464 35.616978,306.011963 
	C47.589767,317.066498 58.919979,328.945007 71.705009,338.966461 
	C102.875114,363.398865 138.377716,378.325409 177.825974,382.867981 
	C216.798309,387.355743 254.090988,380.630310 290.371521,363.937866 
M311.679688,302.098480 
	C311.000854,302.579742 310.149200,302.933441 309.679871,303.569366 
	C308.757538,304.819061 308.047760,306.225677 307.250031,307.567352 
	C308.899139,307.997406 310.534180,308.502014 312.204834,308.818085 
	C312.809845,308.932556 313.496338,308.506866 314.152161,308.478455 
	C324.771820,308.018646 335.400909,307.106628 346.010376,307.292877 
	C354.497375,307.441864 356.875977,311.033264 355.462769,319.283691 
	C354.875977,322.709595 354.246796,326.171326 353.162170,329.460236 
	C350.614441,337.185791 347.724609,344.798126 345.119324,352.505646 
	C344.697632,353.753113 345.025726,355.254059 345.007233,356.637848 
	C346.529083,356.359650 348.115784,356.259216 349.548615,355.736847 
	C350.413574,355.421509 351.076996,354.486725 351.767395,353.769135 
	C365.210938,339.796204 371.464966,322.934601 372.072327,303.720947 
	C372.225677,298.870087 370.138824,296.338928 365.527771,295.307434 
	C347.018188,291.166840 329.221008,292.655396 311.679688,302.098480 
z"/>
<path fill="#050808" opacity="1.000000" stroke="none" 
	d="
M138.212952,35.183784 
	C164.637924,20.838261 192.657669,17.442709 221.746811,20.385839 
	C234.737411,21.700180 247.262054,24.981459 259.057709,30.667986 
	C284.314209,42.843807 296.882965,63.475945 297.933838,91.045921 
	C298.720367,111.680122 298.575989,132.351776 298.725922,153.007614 
	C298.834808,168.005356 299.027985,183.011261 298.669189,198.001221 
	C298.302216,213.332626 302.964233,226.697311 312.291168,238.750946 
	C322.440735,251.867722 322.144928,252.843674 309.520325,263.563477 
	C300.509155,271.215027 291.641937,279.037109 282.758331,286.837555 
	C275.685608,293.047882 271.039764,293.553558 264.650970,286.954987 
	C257.283325,279.345459 250.756332,270.920349 243.899872,262.819305 
	C242.851334,261.580444 241.994324,260.179474 241.328552,259.245850 
	C232.817413,266.097260 224.902924,273.234985 216.228958,279.283630 
	C200.475037,290.269318 182.376404,293.217529 163.538773,293.211487 
	C119.176483,293.197266 91.780762,266.833160 90.247307,222.483261 
	C88.776886,179.956329 112.860916,147.294586 153.795303,135.601242 
	C177.979248,128.692856 202.838745,126.605003 227.665344,124.076370 
	C228.645569,123.976524 229.627823,123.896744 231.483215,123.728218 
	C230.927567,110.647659 233.298218,97.391968 226.939743,85.131310 
	C221.537491,74.714539 211.845367,70.871956 200.878036,70.327744 
	C183.344009,69.457695 165.408768,77.172028 160.099457,98.796783 
	C158.135376,106.796425 155.209717,108.271774 147.141098,107.305206 
	C134.085693,105.741257 121.006805,104.362122 107.923866,103.043533 
	C100.099739,102.254974 97.151253,98.721794 98.662476,91.104889 
	C103.495964,66.742828 116.519699,48.103329 138.212952,35.183784 
M191.272919,244.894104 
	C205.097916,243.698395 214.513947,235.917068 221.548019,224.599152 
	C233.563583,205.265945 231.040924,183.727478 231.453583,162.113556 
	C217.427216,162.134048 203.903671,162.563889 191.220200,167.568268 
	C184.548767,170.200516 177.725449,173.699814 172.494019,178.476074 
	C160.619614,189.317291 158.871475,203.716248 160.979813,218.946167 
	C163.251846,235.358292 173.860062,244.801270 191.272919,244.894104 
z"/>
<path fill="#F89920" opacity="1.000000" stroke="none" 
	d="
M290.020538,364.070740 
	C254.090988,380.630310 216.798309,387.355743 177.825974,382.867981 
	C138.377716,378.325409 102.875114,363.398865 71.705009,338.966461 
	C58.919979,328.945007 47.589767,317.066498 35.616978,306.011963 
	C34.765102,305.225464 33.675762,304.379425 33.388111,303.365021 
	C32.804424,301.306671 32.694386,299.113983 32.389103,296.976685 
	C34.438419,297.293793 36.948330,296.956635 38.467827,298.026367 
	C60.496590,313.534393 83.958473,326.275970 109.263275,335.603638 
	C145.018234,348.783417 181.929306,355.052673 219.970795,352.749146 
	C258.642578,350.407501 295.306183,340.094604 329.786621,322.277954 
	C330.821564,321.743134 331.898499,321.285583 332.912384,320.714783 
	C335.879913,319.043976 338.951477,317.998291 341.318115,321.369049 
	C343.859009,324.987976 342.760773,328.633850 339.651367,331.135559 
	C331.231110,337.910065 322.841492,344.794159 313.884552,350.807892 
	C306.456726,355.794983 298.239197,359.605896 290.020538,364.070740 
z"/>
<path fill="#F89B23" opacity="1.000000" stroke="none" 
	d="
M312.007660,301.934143 
	C329.221008,292.655396 347.018188,291.166840 365.527771,295.307434 
	C370.138824,296.338928 372.225677,298.870087 372.072327,303.720947 
	C371.464966,322.934601 365.210938,339.796204 351.767395,353.769135 
	C351.076996,354.486725 350.413574,355.421509 349.548615,355.736847 
	C348.115784,356.259216 346.529083,356.359650 345.007233,356.637817 
	C345.025726,355.254059 344.697632,353.753113 345.119324,352.505646 
	C347.724609,344.798126 350.614441,337.185791 353.162170,329.460236 
	C354.246796,326.171326 354.875977,322.709595 355.462769,319.283691 
	C356.875977,311.033264 354.497375,307.441864 346.010376,307.292877 
	C335.400909,307.106628 324.771820,308.018646 314.152161,308.478455 
	C313.496338,308.506866 312.809845,308.932556 312.204834,308.818085 
	C310.534180,308.502014 308.899139,307.997406 307.250031,307.567352 
	C308.047760,306.225677 308.757538,304.819061 309.679871,303.569366 
	C310.149200,302.933441 311.000854,302.579742 312.007660,301.934143 
z"/>
<path fill="#FDFDFD" opacity="1.000000" stroke="none" 
	d="
M190.825562,244.896332 
	C173.860062,244.801270 163.251846,235.358292 160.979813,218.946167 
	C158.871475,203.716248 160.619614,189.317291 172.494019,178.476074 
	C177.725449,173.699814 184.548767,170.200516 191.220200,167.568268 
	C203.903671,162.563889 217.427216,162.134048 231.453583,162.113556 
	C231.040924,183.727478 233.563583,205.265945 221.548019,224.599152 
	C214.513947,235.917068 205.097916,243.698395 190.825562,244.896332 
z"/>
</svg>